<svg xmlns="http://www.w3.org/2000/svg" xmlns:xlink="http://www.w3.org/1999/xlink" width="1080" zoomAndPan="magnify" viewBox="0 0 810 809.999993" height="1080" preserveAspectRatio="xMidYMid meet" version="1.0"><defs><g/><clipPath id="2800d9083b"><path d="M 464 233 L 561 233 L 561 346 L 464 346 Z M 464 233 " clip-rule="nonzero"/></clipPath><clipPath id="39c8100bf6"><path d="M 255.097656 207.1875 L 575.90625 231.785156 L 547.0625 607.933594 L 226.253906 583.332031 Z M 255.097656 207.1875 " clip-rule="nonzero"/></clipPath><clipPath id="f28b6a0be3"><path d="M 255.097656 207.1875 L 575.90625 231.785156 L 547.0625 607.933594 L 226.253906 583.332031 Z M 255.097656 207.1875 " clip-rule="nonzero"/></clipPath><clipPath id="ce5e25eeb2"><path d="M 255.097656 207.1875 L 575.90625 231.785156 L 547.0625 607.933594 L 226.253906 583.332031 Z M 255.097656 207.1875 " clip-rule="nonzero"/></clipPath><clipPath id="ed772a2b29"><path d="M 454 238 L 568 238 L 568 341 L 454 341 Z M 454 238 " clip-rule="nonzero"/></clipPath><clipPath id="d9c064d333"><path d="M 255.097656 207.1875 L 575.90625 231.785156 L 547.0625 607.933594 L 226.253906 583.332031 Z M 255.097656 207.1875 " clip-rule="nonzero"/></clipPath><clipPath id="0c1c9594a0"><path d="M 255.097656 207.1875 L 575.90625 231.785156 L 547.0625 607.933594 L 226.253906 583.332031 Z M 255.097656 207.1875 " clip-rule="nonzero"/></clipPath><clipPath id="cb31c6bc15"><path d="M 255.097656 207.1875 L 575.90625 231.785156 L 547.0625 607.933594 L 226.253906 583.332031 Z M 255.097656 207.1875 " clip-rule="nonzero"/></clipPath><clipPath id="fedf01bad0"><path d="M 235 499 L 321 499 L 321 588 L 235 588 Z M 235 499 " clip-rule="nonzero"/></clipPath><clipPath id="5fc381e8df"><path d="M 255.097656 207.1875 L 575.90625 231.785156 L 547.0625 607.933594 L 226.253906 583.332031 Z M 255.097656 207.1875 " clip-rule="nonzero"/></clipPath><clipPath id="61aae05e40"><path d="M 255.097656 207.1875 L 575.90625 231.785156 L 547.0625 607.933594 L 226.253906 583.332031 Z M 255.097656 207.1875 " clip-rule="nonzero"/></clipPath><clipPath id="3bc6cad2da"><path d="M 255.097656 207.1875 L 575.90625 231.785156 L 547.0625 607.933594 L 226.253906 583.332031 Z M 255.097656 207.1875 " clip-rule="nonzero"/></clipPath><clipPath id="988efee862"><path d="M 347 272 L 427 272 L 427 296 L 347 296 Z M 347 272 " clip-rule="nonzero"/></clipPath><clipPath id="bc9ccb1d33"><path d="M 255.097656 207.1875 L 575.90625 231.785156 L 547.0625 607.933594 L 226.253906 583.332031 Z M 255.097656 207.1875 " clip-rule="nonzero"/></clipPath><clipPath id="1faaa901e7"><path d="M 255.097656 207.1875 L 575.90625 231.785156 L 547.0625 607.933594 L 226.253906 583.332031 Z M 255.097656 207.1875 " clip-rule="nonzero"/></clipPath><clipPath id="039afd5660"><path d="M 255.097656 207.1875 L 575.90625 231.785156 L 547.0625 607.933594 L 226.253906 583.332031 Z M 255.097656 207.1875 " clip-rule="nonzero"/></clipPath><clipPath id="60df4f4c82"><path d="M 246 263 L 311 263 L 311 334 L 246 334 Z M 246 263 " clip-rule="nonzero"/></clipPath><clipPath id="c810889714"><path d="M 255.097656 207.1875 L 575.90625 231.785156 L 547.0625 607.933594 L 226.253906 583.332031 Z M 255.097656 207.1875 " clip-rule="nonzero"/></clipPath><clipPath id="1651490336"><path d="M 255.097656 207.1875 L 575.90625 231.785156 L 547.0625 607.933594 L 226.253906 583.332031 Z M 255.097656 207.1875 " clip-rule="nonzero"/></clipPath><clipPath id="ab1601a575"><path d="M 255.097656 207.1875 L 575.90625 231.785156 L 547.0625 607.933594 L 226.253906 583.332031 Z M 255.097656 207.1875 " clip-rule="nonzero"/></clipPath><clipPath id="968b7e3306"><path d="M 250 365 L 319 365 L 319 430 L 250 430 Z M 250 365 " clip-rule="nonzero"/></clipPath><clipPath id="7c8decc1c3"><path d="M 255.097656 207.1875 L 575.90625 231.785156 L 547.0625 607.933594 L 226.253906 583.332031 Z M 255.097656 207.1875 " clip-rule="nonzero"/></clipPath><clipPath id="d7d9b3e745"><path d="M 255.097656 207.1875 L 575.90625 231.785156 L 547.0625 607.933594 L 226.253906 583.332031 Z M 255.097656 207.1875 " clip-rule="nonzero"/></clipPath><clipPath id="7a41a22b66"><path d="M 255.097656 207.1875 L 575.90625 231.785156 L 547.0625 607.933594 L 226.253906 583.332031 Z M 255.097656 207.1875 " clip-rule="nonzero"/></clipPath><clipPath id="b8f387cc54"><path d="M 356 408 L 435 408 L 435 431 L 356 431 Z M 356 408 " clip-rule="nonzero"/></clipPath><clipPath id="be785e3cc1"><path d="M 255.097656 207.1875 L 575.90625 231.785156 L 547.0625 607.933594 L 226.253906 583.332031 Z M 255.097656 207.1875 " clip-rule="nonzero"/></clipPath><clipPath id="6e1ca0d2b8"><path d="M 255.097656 207.1875 L 575.90625 231.785156 L 547.0625 607.933594 L 226.253906 583.332031 Z M 255.097656 207.1875 " clip-rule="nonzero"/></clipPath><clipPath id="883af596a0"><path d="M 255.097656 207.1875 L 575.90625 231.785156 L 547.0625 607.933594 L 226.253906 583.332031 Z M 255.097656 207.1875 " clip-rule="nonzero"/></clipPath><clipPath id="8c9abd894b"><path d="M 475 414 L 537 414 L 537 482 L 475 482 Z M 475 414 " clip-rule="nonzero"/></clipPath><clipPath id="dfb6dad699"><path d="M 255.097656 207.1875 L 575.90625 231.785156 L 547.0625 607.933594 L 226.253906 583.332031 Z M 255.097656 207.1875 " clip-rule="nonzero"/></clipPath><clipPath id="392e81b7a0"><path d="M 255.097656 207.1875 L 575.90625 231.785156 L 547.0625 607.933594 L 226.253906 583.332031 Z M 255.097656 207.1875 " clip-rule="nonzero"/></clipPath><clipPath id="0c335928c0"><path d="M 255.097656 207.1875 L 575.90625 231.785156 L 547.0625 607.933594 L 226.253906 583.332031 Z M 255.097656 207.1875 " clip-rule="nonzero"/></clipPath><clipPath id="48f845cb96"><path d="M 463 513 L 532 513 L 532 573 L 463 573 Z M 463 513 " clip-rule="nonzero"/></clipPath><clipPath id="e5e0a42af5"><path d="M 255.097656 207.1875 L 575.90625 231.785156 L 547.0625 607.933594 L 226.253906 583.332031 Z M 255.097656 207.1875 " clip-rule="nonzero"/></clipPath><clipPath id="c605a7738f"><path d="M 255.097656 207.1875 L 575.90625 231.785156 L 547.0625 607.933594 L 226.253906 583.332031 Z M 255.097656 207.1875 " clip-rule="nonzero"/></clipPath><clipPath id="b99c3f88dd"><path d="M 255.097656 207.1875 L 575.90625 231.785156 L 547.0625 607.933594 L 226.253906 583.332031 Z M 255.097656 207.1875 " clip-rule="nonzero"/></clipPath><clipPath id="981c940dc2"><path d="M 349 548 L 425 548 L 425 571 L 349 571 Z M 349 548 " clip-rule="nonzero"/></clipPath><clipPath id="2202c91d02"><path d="M 255.097656 207.1875 L 575.90625 231.785156 L 547.0625 607.933594 L 226.253906 583.332031 Z M 255.097656 207.1875 " clip-rule="nonzero"/></clipPath><clipPath id="7482632841"><path d="M 255.097656 207.1875 L 575.90625 231.785156 L 547.0625 607.933594 L 226.253906 583.332031 Z M 255.097656 207.1875 " clip-rule="nonzero"/></clipPath><clipPath id="6e44db9e6f"><path d="M 255.097656 207.1875 L 575.90625 231.785156 L 547.0625 607.933594 L 226.253906 583.332031 Z M 255.097656 207.1875 " clip-rule="nonzero"/></clipPath><clipPath id="ca350887f9"><path d="M 238 316 L 536 316 L 536 539 L 238 539 Z M 238 316 " clip-rule="nonzero"/></clipPath><clipPath id="7882952fa3"><path d="M 202.054688 360.058594 L 501.695312 273.113281 L 570.875 511.53125 L 271.234375 598.472656 Z M 202.054688 360.058594 " clip-rule="nonzero"/></clipPath><clipPath id="1e5df9c5a7"><path d="M 202.054688 360.058594 L 501.695312 273.113281 L 570.875 511.53125 L 271.234375 598.472656 Z M 202.054688 360.058594 " clip-rule="nonzero"/></clipPath><clipPath id="7f1a37b79f"><path d="M 202.054688 360.058594 L 501.695312 273.113281 L 570.875 511.53125 L 271.234375 598.472656 Z M 202.054688 360.058594 " clip-rule="nonzero"/></clipPath><clipPath id="c2599beceb"><path d="M 311 327 L 507 327 L 507 404 L 311 404 Z M 311 327 " clip-rule="nonzero"/></clipPath><clipPath id="81769cbbb0"><path d="M 202.054688 360.058594 L 501.695312 273.113281 L 570.875 511.53125 L 271.234375 598.472656 Z M 202.054688 360.058594 " clip-rule="nonzero"/></clipPath><clipPath id="4468a220da"><path d="M 202.054688 360.058594 L 501.695312 273.113281 L 570.875 511.53125 L 271.234375 598.472656 Z M 202.054688 360.058594 " clip-rule="nonzero"/></clipPath><clipPath id="472b2d203a"><path d="M 202.054688 360.058594 L 501.695312 273.113281 L 570.875 511.53125 L 271.234375 598.472656 Z M 202.054688 360.058594 " clip-rule="nonzero"/></clipPath><clipPath id="bad5a1ea1c"><path d="M 237 316 L 536 316 L 536 539 L 237 539 Z M 237 316 " clip-rule="nonzero"/></clipPath><clipPath id="929165691d"><path d="M 202.054688 360.058594 L 501.695312 273.113281 L 570.875 511.53125 L 271.234375 598.472656 Z M 202.054688 360.058594 " clip-rule="nonzero"/></clipPath><clipPath id="2a03a873e3"><path d="M 202.054688 360.058594 L 501.695312 273.113281 L 570.875 511.53125 L 271.234375 598.472656 Z M 202.054688 360.058594 " clip-rule="nonzero"/></clipPath><clipPath id="d6fa19e659"><path d="M 202.054688 360.058594 L 501.695312 273.113281 L 570.875 511.53125 L 271.234375 598.472656 Z M 202.054688 360.058594 " clip-rule="nonzero"/></clipPath><clipPath id="b938ab8c10"><rect x="0" width="408" y="0" height="268"/></clipPath><clipPath id="d29cea83f8"><rect x="0" width="337" y="0" height="210"/></clipPath></defs><g clip-path="url(#2800d9083b)"><g clip-path="url(#39c8100bf6)"><g clip-path="url(#f28b6a0be3)"><g clip-path="url(#ce5e25eeb2)"><path fill="#ff47f9" d="M 467.238281 252.6875 C 481.191406 266.746094 493.988281 281.789062 505.632812 297.8125 C 516.109375 312.9375 525.421875 328.625 538.628906 341.621094 C 549.472656 352.292969 567.613281 336.894531 556.679688 326.140625 C 543.476562 313.152344 534.160156 297.457031 523.683594 282.335938 C 512.042969 266.3125 499.246094 251.269531 485.296875 237.210938 C 474.785156 226.125 456.683594 241.550781 467.238281 252.6875 Z M 467.238281 252.6875 " fill-opacity="1" fill-rule="nonzero"/></g></g></g></g><g clip-path="url(#ed772a2b29)"><g clip-path="url(#d9c064d333)"><g clip-path="url(#0c1c9594a0)"><g clip-path="url(#cb31c6bc15)"><path fill="#ff47f9" d="M 548.394531 241.789062 C 521.773438 271.171875 492.179688 297.175781 459.617188 319.800781 C 447.050781 328.539062 462.628906 346.527344 475.097656 337.851562 C 507.65625 315.222656 537.246094 289.21875 563.867188 259.839844 C 574.03125 248.636719 558.664062 230.464844 548.394531 241.789062 Z M 548.394531 241.789062 " fill-opacity="1" fill-rule="nonzero"/></g></g></g></g><g clip-path="url(#fedf01bad0)"><g clip-path="url(#5fc381e8df)"><g clip-path="url(#61aae05e40)"><g clip-path="url(#3bc6cad2da)"><path fill="#01c3dc" d="M 317.070312 565.996094 C 315.007812 572.859375 311.773438 579.789062 305.796875 583.757812 C 298.175781 588.816406 288.183594 587.785156 279.121094 586.402344 C 268.722656 584.835938 257.792969 582.882812 249.636719 576.246094 C 246.550781 573.578125 243.9375 570.503906 241.800781 567.03125 C 239.660156 563.558594 238.09375 559.84375 237.097656 555.886719 C 236.207031 552.886719 235.617188 549.828125 235.328125 546.707031 C 235.039062 543.589844 235.058594 540.472656 235.386719 537.359375 C 235.714844 534.246094 236.34375 531.191406 237.273438 528.203125 C 238.203125 525.210938 239.417969 522.339844 240.914062 519.589844 C 254.011719 496.980469 285.113281 494.496094 305.46875 508.71875 C 308.078125 510.382812 310.402344 512.375 312.445312 514.699219 C 314.484375 517.023438 316.160156 519.585938 317.472656 522.386719 C 319.277344 527 320.261719 531.785156 320.429688 536.734375 C 321.070312 546.691406 319.953125 556.445312 317.070312 565.996094 Z M 317.070312 565.996094 " fill-opacity="1" fill-rule="nonzero"/></g></g></g></g><g clip-path="url(#988efee862)"><g clip-path="url(#bc9ccb1d33)"><g clip-path="url(#1faaa901e7)"><g clip-path="url(#039afd5660)"><path fill="#ffb100" d="M 418.074219 276.742188 L 356.863281 272.046875 C 345.007812 271.140625 343.5625 289.574219 355.449219 290.488281 L 416.660156 295.179688 C 428.515625 296.089844 429.960938 277.652344 418.074219 276.742188 Z M 418.074219 276.742188 " fill-opacity="1" fill-rule="nonzero"/></g></g></g></g><g clip-path="url(#60df4f4c82)"><g clip-path="url(#c810889714)"><g clip-path="url(#1651490336)"><g clip-path="url(#ab1601a575)"><path fill="#ffb100" d="M 301.984375 263.898438 C 300.15625 263.738281 298.320312 263.675781 296.484375 263.71875 C 294.648438 263.757812 292.816406 263.898438 290.996094 264.136719 C 289.175781 264.378906 287.371094 264.714844 285.585938 265.152344 C 283.804688 265.589844 282.046875 266.125 280.320312 266.753906 C 278.59375 267.382812 276.910156 268.105469 275.261719 268.917969 C 273.613281 269.734375 272.015625 270.636719 270.46875 271.625 C 268.921875 272.613281 267.429688 273.683594 266 274.835938 C 264.570312 275.988281 263.203125 277.214844 261.90625 278.515625 C 249.707031 290.882812 247.359375 307.628906 247 324.308594 C 246.738281 336.15625 265.179688 337.648438 265.445312 325.722656 C 265.691406 314.515625 265.925781 302.132812 273.511719 293.105469 C 275.171875 291.191406 277.035156 289.503906 279.101562 288.039062 C 281.167969 286.574219 283.378906 285.371094 285.734375 284.433594 C 288.085938 283.5 290.519531 282.851562 293.027344 282.496094 C 295.535156 282.144531 298.050781 282.089844 300.570312 282.335938 C 312.4375 283.265625 313.871094 264.828125 301.984375 263.898438 Z M 301.984375 263.898438 " fill-opacity="1" fill-rule="nonzero"/></g></g></g></g><g clip-path="url(#968b7e3306)"><g clip-path="url(#7c8decc1c3)"><g clip-path="url(#d7d9b3e745)"><g clip-path="url(#7a41a22b66)"><path fill="#ffb100" d="M 250.402344 373.28125 C 250.222656 389.148438 252.144531 404.132812 264.152344 415.605469 C 276.207031 427.109375 292.746094 430.480469 308.925781 429.800781 C 320.671875 429.304688 322.226562 410.859375 310.339844 411.363281 C 299.492188 411.816406 287.929688 411.0625 279.03125 404.101562 C 269.644531 396.757812 268.714844 385.859375 268.828125 374.703125 C 268.960938 362.867188 250.519531 361.378906 250.386719 373.289062 Z M 250.402344 373.28125 " fill-opacity="1" fill-rule="nonzero"/></g></g></g></g><g clip-path="url(#b8f387cc54)"><g clip-path="url(#be785e3cc1)"><g clip-path="url(#6e1ca0d2b8)"><g clip-path="url(#883af596a0)"><path fill="#ffb100" d="M 364.609375 426.902344 L 424.523438 430.871094 C 436.386719 431.65625 437.835938 413.222656 425.9375 412.433594 L 366.019531 408.464844 C 354.15625 407.675781 352.707031 426.113281 364.609375 426.902344 Z M 364.609375 426.902344 " fill-opacity="1" fill-rule="nonzero"/></g></g></g></g><g clip-path="url(#8c9abd894b)"><g clip-path="url(#dfb6dad699)"><g clip-path="url(#392e81b7a0)"><g clip-path="url(#0c335928c0)"><path fill="#ffb100" d="M 481.523438 432.273438 C 491.746094 434.71875 502.453125 438.75 510.199219 446.144531 C 517.878906 453.472656 516.953125 464.832031 517.917969 474.679688 C 519.078125 486.5 537.230469 482.917969 536.078125 471.140625 C 534.726562 457.339844 534.503906 444.546875 524.242188 434.105469 C 519.164062 429.289062 513.53125 425.246094 507.339844 421.980469 C 501.152344 418.71875 494.632812 416.351562 487.789062 414.882812 C 476.320312 412.148438 469.972656 429.527344 481.523438 432.289062 Z M 481.523438 432.273438 " fill-opacity="1" fill-rule="nonzero"/></g></g></g></g><g clip-path="url(#48f845cb96)"><g clip-path="url(#e5e0a42af5)"><g clip-path="url(#c605a7738f)"><g clip-path="url(#b99c3f88dd)"><path fill="#ffb100" d="M 513.128906 519.539062 C 509.648438 528.433594 505.972656 537.84375 499.066406 544.71875 C 491.894531 551.871094 482.402344 553.394531 472.625 553.652344 C 460.84375 553.960938 459.300781 572.40625 471.210938 572.089844 C 484.945312 571.726562 498.175781 569.78125 509.027344 560.648438 C 519.726562 551.640625 525.5625 538.527344 530.535156 525.804688 C 534.875 514.695312 517.457031 508.46875 513.128906 519.539062 Z M 513.128906 519.539062 " fill-opacity="1" fill-rule="nonzero"/></g></g></g></g><g clip-path="url(#981c940dc2)"><g clip-path="url(#2202c91d02)"><g clip-path="url(#7482632841)"><g clip-path="url(#6e44db9e6f)"><path fill="#ffb100" d="M 415.964844 551.574219 C 396.949219 549.152344 377.859375 547.976562 358.691406 548.054688 C 346.871094 548.101562 345.347656 566.542969 357.277344 566.496094 C 376.445312 566.417969 395.535156 567.589844 414.550781 570.011719 C 426.359375 571.515625 427.75 553.074219 415.964844 551.574219 Z M 415.964844 551.574219 " fill-opacity="1" fill-rule="nonzero"/></g></g></g></g><g clip-path="url(#ca350887f9)"><g clip-path="url(#7882952fa3)"><g clip-path="url(#1e5df9c5a7)"><g clip-path="url(#7f1a37b79f)"><path fill="#79d1c2" d="M 534.789062 390.261719 C 535.472656 392.546875 535.417969 394.988281 534.617188 397.234375 C 530.300781 409.320312 515.460938 451.605469 510.140625 476.566406 C 503.886719 505.910156 487.507812 535.722656 460.722656 538.15625 C 433.9375 540.585938 428.753906 507.164062 430.300781 489.871094 C 431.011719 481.882812 431.894531 472.40625 430.832031 464.085938 C 431.15625 463.644531 431.285156 463.15625 431.300781 462.636719 C 430.941406 463.03125 430.769531 463.507812 430.832031 464.085938 C 420.625 464.925781 412.285156 461.851562 410.5625 455.90625 L 406.402344 441.578125 C 398.976562 439.753906 390.121094 437.566406 381.777344 435.503906 C 377.945312 439.582031 371.820312 443.222656 364.460938 445.355469 C 350.472656 449.414062 337.339844 446.511719 335.125 438.875 L 335.046875 438.605469 C 335.011719 438.628906 334.984375 438.660156 334.953125 438.6875 C 330.613281 442.734375 326 447.753906 321.21875 453.3125 C 308.027344 468.644531 286.089844 490.621094 262.699219 489.191406 C 239.304688 487.765625 231.488281 457.984375 245.652344 430.453125 C 259.824219 402.917969 289.175781 369.75 293.898438 360.570312 C 298.621094 351.394531 305.40625 330.9375 331.6875 325.363281 C 335.335938 324.589844 338.5625 324.144531 341.449219 323.945312 C 341.449219 323.941406 341.453125 323.941406 341.453125 323.9375 C 342.324219 323.882812 351.179688 317.511719 351.179688 317.511719 C 351.179688 317.511719 367.253906 313.722656 374.824219 324.851562 L 376.929688 334.417969 L 476.652344 359.726562 C 476.652344 359.726562 482.503906 358.03125 490.195312 357.539062 C 491.070312 357.476562 498.582031 350.933594 498.582031 350.933594 C 498.582031 350.933594 513.90625 346.929688 522.617188 358.683594 L 528.390625 375.625 C 528.378906 375.558594 528.335938 375.515625 528.277344 375.476562 C 530.820312 379.359375 532.945312 384.085938 534.789062 390.261719 " fill-opacity="1" fill-rule="nonzero"/></g></g></g></g><g clip-path="url(#c2599beceb)"><g clip-path="url(#81769cbbb0)"><g clip-path="url(#4468a220da)"><g clip-path="url(#472b2d203a)"><path fill="#9eded3" d="M 353.53125 341.933594 L 345.207031 339.894531 C 344.933594 339.828125 344.652344 339.828125 344.382812 339.894531 L 335.570312 342.050781 C 334.628906 342.28125 334.0625 343.242188 334.308594 344.183594 L 334.882812 346.351562 C 335.050781 346.980469 335.554688 347.464844 336.195312 347.601562 L 345.339844 349.585938 C 346.378906 349.78125 347.445312 349.457031 348.203125 348.722656 L 353.902344 343.214844 C 354.339844 342.792969 354.125 342.054688 353.53125 341.933594 Z M 330.316406 340.539062 L 329.109375 337.191406 C 328.894531 336.601562 328.390625 336.164062 327.78125 336.042969 L 319.421875 334.328125 C 319.167969 334.273438 318.902344 334.355469 318.722656 334.546875 L 312.019531 341.640625 C 311.605469 342.074219 311.839844 342.789062 312.429688 342.898438 L 322.152344 344.699219 C 322.425781 344.75 322.707031 344.734375 322.976562 344.65625 L 329.128906 342.871094 C 330.125 342.582031 330.667969 341.511719 330.316406 340.539062 Z M 330.210938 345.285156 L 321.707031 347.753906 C 321.410156 347.839844 321.148438 348 320.933594 348.222656 L 316.257812 353.175781 C 315.390625 354.09375 315.976562 355.613281 317.238281 355.707031 L 325.269531 356.316406 C 326.457031 356.40625 327.625 355.953125 328.4375 355.082031 L 332.265625 351.007812 C 332.617188 350.632812 332.746094 350.097656 332.601562 349.601562 L 331.566406 346.035156 C 331.398438 345.449219 330.789062 345.117188 330.210938 345.285156 Z M 348.480469 329.070312 L 340.0625 327.679688 C 339.570312 327.601562 339.070312 327.769531 338.726562 328.132812 L 332.902344 334.269531 C 332.558594 334.636719 332.449219 335.167969 332.628906 335.636719 L 334.0625 339.453125 C 334.234375 339.902344 334.707031 340.152344 335.171875 340.039062 L 342.621094 338.238281 C 342.992188 338.144531 343.332031 337.949219 343.59375 337.671875 L 349.328125 331.585938 C 350.152344 330.707031 349.664062 329.269531 348.480469 329.070312 Z M 466.3125 387.570312 C 461.480469 388.96875 458.1875 392.246094 458.953125 394.886719 C 459.71875 397.523438 464.253906 398.527344 469.085938 397.125 C 473.917969 395.722656 477.214844 392.449219 476.449219 389.808594 C 475.683594 387.167969 471.144531 386.167969 466.3125 387.570312 Z M 496.304688 379.628906 C 491.472656 381.03125 488.179688 384.308594 488.945312 386.945312 C 489.710938 389.585938 494.246094 390.589844 499.078125 389.1875 C 503.910156 387.785156 507.207031 384.507812 506.441406 381.871094 C 505.675781 379.230469 501.136719 378.226562 496.304688 379.628906 Z M 491.042969 361.496094 C 486.210938 362.898438 482.917969 366.175781 483.683594 368.8125 C 484.449219 371.453125 488.984375 372.457031 493.816406 371.054688 C 498.648438 369.652344 501.945312 366.375 501.179688 363.738281 C 500.414062 361.097656 495.875 360.09375 491.042969 361.496094 Z M 462.179688 369.871094 C 457.347656 371.273438 454.050781 374.550781 454.816406 377.1875 C 455.582031 379.828125 460.121094 380.832031 464.953125 379.429688 C 469.785156 378.027344 473.078125 374.75 472.3125 372.113281 C 471.546875 369.472656 467.011719 368.46875 462.179688 369.871094 Z M 415.082031 376.871094 C 404.871094 379.835938 397.617188 386.40625 397.753906 392.179688 C 397.78125 393.164062 398.3125 394.058594 399.121094 394.613281 C 401.777344 396.429688 408.691406 401.003906 414.261719 403.273438 C 414.261719 403.273438 421.15625 405.773438 431.734375 398.433594 C 435.355469 392.527344 437.566406 385.597656 438.308594 383.058594 C 438.507812 382.371094 438.484375 381.628906 438.167969 380.988281 C 435.523438 375.679688 425.605469 373.816406 415.082031 376.871094 Z M 362.761719 364.066406 C 363.078125 364.707031 363.105469 365.453125 362.90625 366.140625 C 362.164062 368.679688 359.953125 375.605469 356.328125 381.515625 C 345.75 388.851562 338.855469 386.351562 338.855469 386.351562 C 333.285156 384.082031 326.375 379.511719 323.714844 377.691406 C 322.90625 377.136719 322.375 376.242188 322.351562 375.261719 C 322.210938 369.488281 329.464844 362.914062 339.679688 359.949219 C 350.199219 356.898438 360.121094 358.761719 362.761719 364.066406 " fill-opacity="1" fill-rule="nonzero"/></g></g></g></g><g clip-path="url(#bad5a1ea1c)"><g clip-path="url(#929165691d)"><g clip-path="url(#2a03a873e3)"><g clip-path="url(#d6fa19e659)"><path fill="#53a4bb" d="M 466.503906 388.230469 C 470.890625 386.957031 475.140625 387.769531 475.789062 390 C 476.4375 392.230469 473.28125 395.191406 468.894531 396.464844 C 464.511719 397.738281 460.257812 396.925781 459.613281 394.695312 C 458.964844 392.460938 462.121094 389.5 466.503906 388.230469 Z M 470.269531 401.207031 C 475.546875 399.679688 478.988281 396.089844 478.101562 393.039062 L 477.109375 389.617188 C 476.222656 386.566406 471.398438 385.375 466.121094 386.90625 C 460.847656 388.4375 457.410156 392.027344 458.292969 395.078125 L 459.289062 398.5 C 460.171875 401.550781 464.996094 402.738281 470.269531 401.207031 Z M 496.496094 380.289062 C 500.878906 379.019531 505.132812 379.832031 505.78125 382.0625 C 506.429688 384.296875 503.269531 387.253906 498.886719 388.527344 C 494.5 389.800781 490.253906 388.988281 489.605469 386.753906 C 488.957031 384.523438 492.113281 381.5625 496.496094 380.289062 Z M 500.265625 393.273438 C 505.539062 391.742188 508.976562 388.152344 508.089844 385.105469 L 507.097656 381.679688 C 506.214844 378.628906 501.390625 377.441406 496.113281 378.972656 C 490.839844 380.503906 487.398438 384.089844 488.285156 387.136719 L 489.277344 390.5625 C 490.164062 393.613281 494.988281 394.804688 500.265625 393.273438 Z M 434.039062 384.046875 L 434.714844 385.242188 C 428.648438 388.695312 423.140625 390.882812 418.425781 392.25 C 412.386719 394.003906 407.648438 394.417969 404.6875 394.445312 L 404.667969 393.074219 C 409.816406 393.019531 420.476562 391.769531 434.039062 384.046875 Z M 419.136719 362.894531 L 421.40625 360.167969 L 428.101562 363.367188 Z M 421.671875 358.773438 C 421.296875 358.589844 420.847656 358.6875 420.578125 359.007812 L 417.484375 362.726562 C 417.265625 362.996094 417.214844 363.359375 417.355469 363.675781 C 417.492188 363.992188 417.792969 364.199219 418.136719 364.21875 L 430.371094 364.863281 C 430.476562 364.871094 430.578125 364.855469 430.671875 364.828125 C 430.976562 364.742188 431.214844 364.503906 431.296875 364.179688 C 431.402344 363.757812 431.203125 363.328125 430.804688 363.136719 Z M 396.457031 383.148438 L 395.570312 384.128906 C 395.375 384.34375 395.085938 384.441406 394.796875 384.386719 L 383.796875 382.347656 C 383.367188 382.265625 383.207031 381.9375 383.160156 381.800781 C 383.109375 381.660156 383.03125 381.304688 383.316406 380.972656 L 384.476562 379.636719 C 384.585938 379.511719 384.722656 379.425781 384.875 379.382812 C 385.007812 379.34375 385.148438 379.339844 385.292969 379.371094 L 396.019531 381.765625 C 396.445312 381.863281 396.59375 382.195312 396.636719 382.332031 C 396.679688 382.46875 396.75 382.828125 396.457031 383.148438 Z M 396.320312 380.425781 L 385.589844 378.027344 C 384.796875 377.851562 383.972656 378.121094 383.441406 378.738281 L 382.28125 380.070312 C 381.753906 380.675781 381.597656 381.492188 381.863281 382.253906 C 382.128906 383.011719 382.757812 383.554688 383.546875 383.699219 L 394.550781 385.738281 C 394.898438 385.804688 395.246094 385.785156 395.570312 385.691406 C 395.953125 385.578125 396.308594 385.363281 396.585938 385.050781 L 397.476562 384.070312 C 398.011719 383.484375 398.1875 382.675781 397.945312 381.914062 C 397.703125 381.15625 397.097656 380.597656 396.320312 380.425781 Z M 387.878906 353.578125 L 386.988281 354.554688 C 386.796875 354.773438 386.503906 354.867188 386.21875 354.816406 L 375.214844 352.777344 C 374.785156 352.695312 374.625 352.367188 374.578125 352.226562 C 374.53125 352.089844 374.449219 351.734375 374.738281 351.398438 L 375.894531 350.066406 C 376.003906 349.941406 376.144531 349.855469 376.296875 349.8125 C 376.425781 349.773438 376.570312 349.765625 376.710938 349.796875 L 387.4375 352.195312 C 387.867188 352.289062 388.011719 352.621094 388.054688 352.757812 C 388.097656 352.898438 388.171875 353.253906 387.878906 353.578125 Z M 387.738281 350.851562 L 377.007812 348.457031 C 376.214844 348.277344 375.390625 348.550781 374.859375 349.164062 L 373.699219 350.496094 C 373.171875 351.105469 373.015625 351.921875 373.28125 352.679688 C 373.546875 353.441406 374.175781 353.980469 374.96875 354.125 L 385.96875 356.167969 C 386.316406 356.230469 386.664062 356.214844 386.988281 356.117188 C 387.375 356.007812 387.726562 355.789062 388.007812 355.480469 L 388.894531 354.5 C 389.429688 353.910156 389.605469 353.105469 389.363281 352.34375 C 389.125 351.582031 388.515625 351.027344 387.738281 350.851562 Z M 342.195312 375.265625 C 335.832031 377.113281 330.832031 377.550781 327.703125 377.585938 L 327.691406 376.210938 C 333.125 376.148438 344.382812 374.835938 358.699219 366.675781 L 359.378906 367.875 C 352.980469 371.519531 347.171875 373.824219 342.195312 375.265625 Z M 333.402344 334.742188 L 339.226562 328.605469 C 339.328125 328.5 339.453125 328.421875 339.59375 328.382812 C 339.707031 328.347656 339.828125 328.339844 339.949219 328.359375 L 348.367188 329.75 C 348.667969 329.800781 348.90625 330.003906 349.003906 330.292969 C 349.105469 330.582031 349.035156 330.890625 348.828125 331.113281 L 343.09375 337.199219 C 342.921875 337.382812 342.703125 337.507812 342.460938 337.570312 L 335.011719 339.371094 C 334.882812 339.402344 334.75 339.335938 334.707031 339.210938 L 333.269531 335.398438 C 333.1875 335.175781 333.238281 334.914062 333.402344 334.742188 Z M 353.394531 342.605469 C 353.40625 342.609375 353.429688 342.617188 353.441406 342.65625 C 353.453125 342.695312 353.4375 342.710938 353.425781 342.71875 L 350.582031 345.46875 L 347.726562 348.226562 C 347.386719 348.554688 346.96875 348.777344 346.523438 348.882812 C 346.183594 348.964844 345.832031 348.980469 345.484375 348.917969 L 336.335938 346.929688 C 336.1875 346.898438 335.929688 346.722656 335.773438 346.589844 C 335.671875 346.472656 335.589844 346.332031 335.546875 346.175781 L 334.972656 344.007812 C 334.898438 343.730469 334.941406 343.445312 335.082031 343.203125 C 335.152344 343.089844 335.238281 342.992188 335.339844 342.910156 L 335.351562 342.902344 C 335.363281 342.890625 335.375 342.886719 335.386719 342.878906 C 335.433594 342.847656 335.480469 342.816406 335.53125 342.792969 C 335.550781 342.785156 335.570312 342.777344 335.589844 342.769531 C 335.636719 342.75 335.6875 342.730469 335.734375 342.71875 L 344.546875 340.5625 C 344.632812 340.539062 344.734375 340.535156 344.863281 340.542969 L 344.941406 340.550781 C 344.976562 340.554688 345.011719 340.554688 345.042969 340.5625 L 353.367188 342.601562 Z M 353.683594 341.265625 L 346.246094 339.441406 L 350.625 334.796875 C 351.179688 334.207031 351.363281 333.363281 351.101562 332.59375 C 350.941406 332.121094 350.628906 331.722656 350.222656 331.460938 C 350.449219 330.960938 350.488281 330.390625 350.308594 329.855469 C 350.046875 329.085938 349.386719 328.527344 348.589844 328.394531 L 340.175781 327.003906 C 339.453125 326.886719 338.726562 327.132812 338.230469 327.660156 L 332.402344 333.796875 C 331.882812 334.347656 331.71875 335.167969 331.988281 335.882812 L 332.667969 337.703125 C 332.636719 338.015625 332.671875 338.332031 332.78125 338.621094 L 334.125 342.195312 C 334.046875 342.289062 333.96875 342.386719 333.902344 342.5 C 333.566406 343.0625 333.476562 343.722656 333.644531 344.355469 L 334.21875 346.523438 C 334.261719 346.691406 334.328125 346.84375 334.402344 346.992188 L 335.011719 349.265625 C 335.246094 350.152344 335.949219 350.820312 336.84375 351.015625 L 346.011719 353.003906 C 346.625 353.117188 347.246094 353.082031 347.832031 352.910156 C 348.441406 352.734375 349.007812 352.414062 349.476562 351.960938 L 355.175781 346.453125 C 355.589844 346.046875 355.71875 345.445312 355.511719 344.902344 C 355.375 344.402344 355.046875 343.316406 355.046875 343.316406 L 354.785156 342.429688 C 354.773438 342.375 354.777344 342.324219 354.761719 342.273438 C 354.613281 341.761719 354.199219 341.375 353.683594 341.265625 Z M 331.953125 350.179688 C 331.953125 350.183594 331.953125 350.1875 331.953125 350.1875 C 331.921875 350.316406 331.859375 350.4375 331.765625 350.539062 L 327.9375 354.609375 C 327.261719 355.332031 326.304688 355.703125 325.320312 355.628906 L 317.859375 355.066406 L 316.621094 354.558594 C 316.613281 354.539062 316.601562 354.523438 316.589844 354.503906 C 316.472656 354.203125 316.535156 353.886719 316.757812 353.652344 L 321.433594 348.695312 C 321.5625 348.5625 321.722656 348.464844 321.898438 348.414062 L 330.402344 345.945312 C 330.429688 345.9375 330.476562 345.933594 330.542969 345.9375 L 330.597656 345.941406 C 330.738281 345.972656 330.863281 346.074219 330.90625 346.226562 L 331.941406 349.792969 C 331.980469 349.921875 331.980469 350.054688 331.953125 350.179688 Z M 319.222656 335.019531 C 319.230469 335.011719 319.242188 335.003906 319.253906 335.003906 C 319.265625 335 319.273438 335 319.285156 335 L 327.644531 336.714844 C 328.015625 336.792969 328.332031 337.0625 328.460938 337.421875 L 329.671875 340.769531 C 329.710938 340.882812 329.726562 341 329.730469 341.117188 C 329.609375 341.617188 329.253906 342.121094 328.941406 342.210938 L 322.785156 343.996094 C 322.621094 344.046875 322.441406 344.054688 322.277344 344.023438 L 314.476562 342.582031 L 312.566406 342.0625 Z M 330.964844 340.304688 L 329.753906 336.957031 C 329.460938 336.148438 328.757812 335.539062 327.917969 335.367188 L 319.558594 333.652344 C 319.070312 333.550781 318.570312 333.710938 318.226562 334.074219 L 311.519531 341.167969 C 311.15625 341.550781 311.03125 342.101562 311.195312 342.605469 C 311.222656 342.691406 311.269531 342.765625 311.308594 342.84375 C 311.308594 342.929688 311.316406 343.019531 311.34375 343.105469 L 311.839844 344.820312 C 311.859375 344.882812 311.886719 344.953125 311.925781 345.027344 C 311.980469 345.660156 312.445312 346.195312 313.097656 346.316406 L 320.507812 347.683594 C 320.484375 347.707031 320.460938 347.726562 320.4375 347.75 L 315.761719 352.703125 C 315.421875 353.0625 315.230469 353.503906 315.175781 353.96875 L 314.976562 353.886719 L 316.28125 358.347656 L 316.429688 358.304688 C 316.796875 358.78125 317.355469 359.085938 317.980469 359.132812 L 326.011719 359.738281 C 326.574219 359.785156 327.128906 359.722656 327.65625 359.570312 C 328.441406 359.34375 329.160156 358.90625 329.734375 358.292969 L 333.558594 354.21875 C 334.078125 353.667969 334.269531 352.878906 334.058594 352.152344 L 332.226562 345.84375 C 332.125 345.484375 331.917969 345.1875 331.652344 344.96875 C 331.9375 344.378906 331.992188 343.699219 331.773438 343.085938 L 331.132812 340.863281 L 330.984375 340.390625 C 330.976562 340.363281 330.972656 340.332031 330.964844 340.304688 Z M 454.175781 377.429688 L 455.152344 380.804688 C 456.039062 383.855469 460.859375 385.042969 466.136719 383.511719 C 471.410156 381.980469 474.851562 378.394531 473.964844 375.34375 L 472.972656 371.921875 C 472.308594 369.632812 469.429688 368.394531 465.804688 368.558594 C 469.605469 366.5 473.839844 364.765625 478.246094 363.488281 C 482.105469 362.367188 485.917969 361.640625 489.566406 361.269531 C 485.035156 362.972656 482.210938 366.210938 483.023438 369.003906 L 484.015625 372.429688 C 484.902344 375.480469 489.726562 376.667969 495.003906 375.136719 C 500.277344 373.605469 503.714844 370.019531 502.828125 366.96875 L 501.835938 363.546875 C 501.550781 362.566406 500.859375 361.78125 499.878906 361.214844 C 509.167969 362.164062 516.105469 365.949219 517.851562 371.960938 C 520.796875 382.113281 507.824219 394.832031 488.933594 400.316406 C 470.039062 405.796875 452.273438 401.996094 449.328125 391.84375 C 448.042969 387.417969 449.765625 382.34375 454.175781 377.429688 Z M 462.371094 370.53125 C 462.390625 370.527344 462.414062 370.523438 462.433594 370.515625 L 462.449219 370.539062 C 462.46875 370.523438 462.496094 370.507812 462.519531 370.496094 C 466.851562 369.285156 471.011719 370.097656 471.652344 372.304688 C 472.300781 374.535156 469.144531 377.496094 464.761719 378.769531 C 460.375 380.039062 456.125 379.230469 455.476562 376.996094 C 454.828125 374.765625 457.988281 371.804688 462.371094 370.53125 Z M 493.625 370.394531 C 489.238281 371.664062 484.988281 370.855469 484.34375 368.621094 C 483.695312 366.390625 486.851562 363.429688 491.234375 362.15625 C 495.617188 360.886719 499.871094 361.695312 500.519531 363.929688 C 501.167969 366.160156 498.007812 369.121094 493.625 370.394531 Z M 489.316406 401.636719 C 508.9375 395.945312 522.328125 382.457031 519.171875 371.578125 C 516.015625 360.695312 497.484375 356.472656 477.863281 362.164062 C 472.09375 363.839844 466.609375 366.277344 461.96875 369.21875 C 457.792969 370.433594 454.777344 372.941406 454.148438 375.449219 C 448.675781 381.042969 446.492188 386.996094 448.011719 392.226562 C 451.167969 403.105469 469.695312 407.332031 489.316406 401.636719 Z M 533.972656 397.003906 C 529.566406 409.328125 514.785156 451.488281 509.46875 476.421875 C 503.515625 504.332031 487.574219 535.027344 460.660156 537.472656 C 453.207031 538.144531 446.953125 536.011719 442.070312 531.128906 C 440.589844 529.648438 439.273438 527.933594 438.101562 526.046875 C 441.765625 528.59375 448.71875 531.71875 458.601562 528.851562 C 461.972656 527.875 465.6875 526.199219 469.722656 523.5625 C 491.835938 509.128906 509.132812 465.921875 514.046875 447.257812 C 516.242188 438.910156 520.160156 426.308594 523.945312 414.121094 C 527.8125 401.671875 531.238281 390.644531 532.449219 385.441406 C 533.035156 387 533.597656 388.667969 534.132812 390.460938 C 534.78125 392.628906 534.726562 394.890625 533.972656 397.003906 Z M 430.984375 489.929688 L 431.023438 489.476562 C 431.746094 481.40625 432.566406 472.261719 431.515625 464.035156 L 431.511719 464.015625 C 430.769531 456.96875 428.667969 452.527344 426.976562 448.960938 C 426.714844 448.40625 426.460938 447.871094 426.222656 447.34375 C 423.628906 441.644531 426.800781 435.25 435.921875 427.789062 C 446.753906 418.921875 451.722656 406.878906 451.773438 406.761719 L 451.863281 406.539062 L 446.863281 389.3125 L 446.859375 389.3125 C 446.847656 389.277344 446.839844 389.234375 446.828125 389.195312 C 445.902344 386 443.234375 383.511719 439.113281 381.984375 C 439.089844 381.527344 438.980469 381.082031 438.78125 380.679688 C 435.953125 375 425.683594 373.078125 414.890625 376.210938 C 404.414062 379.25 396.917969 385.972656 397.070312 392.199219 C 397.085938 392.820312 397.269531 393.425781 397.59375 393.960938 C 394.875 397.488281 393.929688 401.046875 394.867188 404.273438 C 394.878906 404.3125 394.894531 404.351562 394.90625 404.386719 L 394.898438 404.390625 L 399.578125 420.507812 C 389.820312 417.605469 377.957031 414.769531 368.347656 412.476562 C 366.4375 412.019531 364.621094 411.585938 362.921875 411.175781 C 364.464844 403.203125 377.390625 395.1875 377.523438 395.109375 L 377.96875 394.832031 L 371.425781 372.277344 C 370.496094 369.078125 367.832031 366.59375 363.710938 365.0625 C 363.683594 364.605469 363.574219 364.160156 363.375 363.757812 C 361.992188 360.984375 358.828125 359.105469 354.695312 358.277344 C 364.3125 351.90625 369.023438 343.878906 367.042969 337.046875 C 366.851562 336.390625 366.601562 335.75 366.289062 335.136719 L 365.066406 335.753906 C 365.335938 336.289062 365.558594 336.855469 365.722656 337.429688 C 367.585938 343.847656 362.457031 351.890625 352.644531 357.960938 C 348.726562 357.527344 344.15625 357.933594 339.488281 359.289062 C 334.058594 360.863281 329.429688 363.429688 326.253906 366.402344 C 313.207031 367.359375 303.09375 363.273438 301.039062 356.199219 L 299.722656 356.578125 C 301.910156 364.128906 311.679688 368.46875 324.835938 367.863281 C 322.761719 370.238281 321.605469 372.796875 321.664062 375.277344 C 321.679688 375.902344 321.867188 376.503906 322.1875 377.039062 C 319.46875 380.570312 318.527344 384.128906 319.460938 387.355469 L 326.304688 410.945312 C 322.09375 414.226562 314.378906 422.816406 305.96875 433.601562 C 296.589844 445.625 276.460938 466.609375 260.503906 468.96875 C 246.378906 471.054688 240.386719 464 239.53125 462.871094 C 238.5 452.90625 240.785156 441.414062 246.265625 430.765625 C 255.21875 413.367188 270.296875 393.652344 281.3125 379.257812 C 287.703125 370.902344 292.753906 364.300781 294.507812 360.886719 C 295.035156 359.863281 295.589844 358.691406 296.179688 357.449219 C 300.894531 347.527344 308.78125 330.917969 331.832031 326.039062 C 335.449219 325.269531 338.648438 324.824219 341.496094 324.621094 L 341.496094 324.625 C 341.503906 324.621094 341.511719 324.617188 341.519531 324.617188 C 354.816406 323.671875 360.292969 328.089844 363.496094 330.679688 C 364.585938 331.558594 365.371094 332.195312 366.191406 332.402344 L 476.480469 360.394531 L 476.664062 360.4375 L 476.84375 360.386719 C 477.074219 360.320312 500.175781 353.785156 514.449219 363.195312 C 519.5 366.523438 523.636719 369.976562 527.082031 374.933594 C 526.238281 379.328125 522.398438 391.683594 518.339844 404.75 C 514.550781 416.949219 510.628906 429.5625 508.425781 437.9375 C 503.554688 456.429688 486.457031 499.226562 464.683594 513.441406 C 447.949219 524.359375 437.351562 518.367188 433.386719 515.0625 C 430.972656 506.761719 430.304688 497.5 430.984375 489.929688 Z M 411.222656 455.714844 L 406.636719 439.914062 C 409.546875 443.042969 415.273438 447.121094 424.042969 444.632812 C 424.175781 445.746094 424.484375 446.839844 424.972656 447.914062 C 425.214844 448.445312 425.472656 448.988281 425.738281 449.546875 C 427.40625 453.074219 429.289062 457.058594 430.070312 463.453125 C 420.289062 464.089844 412.761719 461.019531 411.222656 455.714844 Z M 383.082031 435.117188 L 383.082031 435.113281 L 365.941406 430.871094 C 365.894531 430.859375 365.84375 430.847656 365.796875 430.835938 C 365.402344 429.71875 364.148438 425.964844 363.351562 421.539062 C 374.226562 424.214844 391.765625 429.164062 403.082031 432.59375 L 405.414062 440.625 C 399.386719 439.148438 392 437.324219 383.082031 435.117188 Z M 364.269531 444.695312 C 350.667969 448.640625 337.890625 445.941406 335.78125 438.679688 L 331.785156 424.90625 C 334.550781 426.507812 340.84375 428.683594 352.101562 425.414062 C 355.039062 424.5625 358.320312 423.332031 361.960938 421.632812 C 362.902344 426.988281 364.527344 431.367188 364.632812 431.65625 L 364.757812 431.992188 L 365.113281 432.082031 C 370.640625 433.453125 375.738281 434.714844 380.4375 435.878906 C 376.535156 439.644531 370.71875 442.824219 364.269531 444.695312 Z M 320.699219 452.863281 C 299.140625 477.914062 280.183594 489.574219 262.742188 488.507812 C 254.972656 488.03125 248.703125 484.378906 244.519531 477.917969 C 248.179688 480.664062 254.605469 483.710938 264.175781 482.296875 C 265.3125 482.128906 266.464844 481.871094 267.636719 481.535156 C 283.347656 476.972656 301.679688 457.761719 310.523438 446.417969 C 318.585938 436.078125 325.984375 427.78125 330.191406 424.335938 L 334.269531 438.390625 C 330.386719 442.027344 325.949219 446.761719 320.699219 452.863281 Z M 329.78125 422.914062 C 325.570312 426.199219 317.851562 434.785156 309.441406 445.570312 C 300.066406 457.597656 279.9375 478.582031 263.976562 480.9375 C 251.257812 482.816406 244.460938 476.464844 242.496094 474.226562 C 241.25 471.484375 240.367188 468.472656 239.847656 465.269531 C 242.546875 467.84375 248.929688 472.066406 260.703125 470.328125 C 261.839844 470.160156 262.992188 469.902344 264.164062 469.5625 C 279.875 465.003906 298.207031 445.789062 307.050781 434.445312 C 315.113281 424.109375 322.511719 415.8125 326.71875 412.367188 Z M 402.625 431.019531 C 391.070312 427.539062 373.691406 422.644531 363.109375 420.0625 C 362.734375 417.585938 362.542969 414.976562 362.746094 412.550781 C 364.402344 412.945312 366.167969 413.371094 368.027344 413.816406 C 377.902344 416.171875 390.160156 419.101562 400.03125 422.078125 Z M 431.222656 397.953125 C 421.175781 404.863281 414.558594 402.644531 414.519531 402.636719 C 409.023438 400.394531 402.191406 395.882812 399.507812 394.042969 C 398.859375 393.597656 398.460938 392.894531 398.445312 392.164062 C 398.308594 386.644531 405.546875 380.355469 415.277344 377.53125 C 425.273438 374.632812 435.058594 376.285156 437.554688 381.292969 C 437.78125 381.75 437.816406 382.308594 437.648438 382.867188 C 436.886719 385.492188 434.734375 392.183594 431.222656 397.953125 Z M 440.226562 390.894531 C 439.394531 389.945312 438.347656 389.007812 437.230469 388.460938 C 437.507812 387.714844 437.757812 387.015625 437.976562 386.367188 C 438.988281 387.242188 439.671875 388.253906 440 389.394531 C 440.144531 389.886719 440.214844 390.386719 440.226562 390.894531 Z M 402.824219 397.867188 C 401.953125 399.253906 401.605469 400.757812 401.703125 402.703125 C 401.269531 402.121094 400.941406 401.480469 400.742188 400.789062 C 400.367188 399.503906 400.453125 398.125 400.984375 396.683594 C 401.546875 397.054688 402.164062 397.449219 402.824219 397.867188 Z M 398.734375 395.179688 C 399.039062 395.386719 399.40625 395.632812 399.808594 395.90625 C 399.074219 397.734375 398.941406 399.503906 399.421875 401.167969 C 401.300781 407.644531 412.226562 410.1875 423.777344 406.835938 C 435.332031 403.484375 443.199219 395.488281 441.320312 389.011719 C 440.863281 387.449219 439.894531 386.09375 438.441406 384.972656 C 438.636719 384.355469 438.800781 383.820312 438.929688 383.382812 C 442.460938 384.757812 444.730469 386.890625 445.511719 389.578125 C 447.621094 396.84375 438.269531 405.960938 424.671875 409.910156 C 411.070312 413.855469 398.292969 411.15625 396.183594 403.890625 C 395.394531 401.167969 396.203125 398.105469 398.515625 395.011719 C 398.589844 395.066406 398.660156 395.125 398.734375 395.179688 Z M 425.054688 411.230469 C 436.53125 407.898438 445.074219 400.894531 446.832031 394.128906 L 450.410156 406.457031 C 449.695312 408.09375 444.828125 418.722656 435.050781 426.722656 C 427.710938 432.730469 424.046875 438.171875 423.96875 443.21875 C 423.90625 443.242188 423.84375 443.261719 423.78125 443.28125 C 411.761719 446.765625 406.09375 437.199219 405.578125 436.273438 L 397.503906 408.441406 C 402.605469 413.21875 413.578125 414.5625 425.054688 411.230469 Z M 349.648438 394.308594 C 361.125 390.980469 369.671875 383.972656 371.425781 377.210938 L 376.359375 394.214844 C 373.894531 395.796875 362.421875 403.570312 361.457031 411.613281 C 361.125 414.390625 361.3125 417.394531 361.730469 420.21875 C 340.785156 430.113281 332.230469 423.707031 331.171875 422.796875 L 322.097656 391.523438 C 327.203125 396.296875 338.171875 397.640625 349.648438 394.308594 Z M 364.8125 373.847656 C 364.082031 373.003906 363.070312 372.019531 361.894531 371.355469 C 362.144531 370.679688 362.367188 370.042969 362.574219 369.449219 C 363.582031 370.320312 364.261719 371.332031 364.59375 372.476562 C 364.722656 372.925781 364.792969 373.382812 364.8125 373.847656 Z M 327.417969 380.945312 C 326.546875 382.332031 326.199219 383.835938 326.296875 385.78125 C 325.863281 385.199219 325.535156 384.558594 325.335938 383.867188 C 324.964844 382.582031 325.050781 381.203125 325.578125 379.761719 C 326.140625 380.132812 326.757812 380.53125 327.417969 380.945312 Z M 339.871094 360.609375 C 349.867188 357.710938 359.652344 359.363281 362.148438 364.375 C 362.371094 364.828125 362.40625 365.386719 362.246094 365.945312 C 361.480469 368.570312 359.328125 375.261719 355.820312 381.03125 C 345.773438 387.945312 339.152344 385.726562 339.113281 385.714844 C 333.621094 383.476562 326.785156 378.960938 324.105469 377.125 C 323.453125 376.679688 323.054688 375.976562 323.035156 375.246094 C 322.90625 369.722656 330.140625 363.433594 339.871094 360.609375 Z M 323.328125 378.257812 C 323.632812 378.46875 324 378.714844 324.402344 378.984375 C 323.679688 380.800781 323.542969 382.609375 324.019531 384.25 C 325.898438 390.722656 336.824219 393.265625 348.375 389.914062 C 359.925781 386.5625 367.792969 378.566406 365.914062 372.09375 C 365.460938 370.527344 364.488281 369.171875 363.035156 368.054688 C 363.234375 367.433594 363.394531 366.898438 363.527344 366.460938 C 367.054688 367.839844 369.324219 369.972656 370.105469 372.660156 C 372.210938 379.921875 362.863281 389.042969 349.265625 392.988281 C 335.664062 396.933594 322.886719 394.234375 320.78125 386.972656 C 319.988281 384.246094 320.796875 381.1875 323.109375 378.089844 C 323.183594 378.144531 323.253906 378.207031 323.328125 378.257812 Z M 351.464844 318.152344 C 352.960938 317.839844 367.15625 315.191406 374.082031 324.992188 L 372.300781 332.535156 L 366.53125 331.070312 C 366 330.9375 365.277344 330.351562 364.359375 329.613281 C 361.457031 327.265625 356.144531 322.976562 344.242188 323.148438 C 346.265625 321.851562 349.019531 319.90625 351.464844 318.152344 Z M 376.019531 333.480469 L 373.636719 332.875 L 374.800781 327.941406 Z M 498.90625 351.5625 C 500.480469 351.207031 513.988281 348.511719 521.890625 358.859375 L 520.699219 366.054688 C 518.992188 364.652344 517.167969 363.339844 515.203125 362.046875 C 508.449219 357.589844 499.992188 356.523438 492.703125 356.707031 C 494.171875 355.59375 496.242188 353.882812 498.90625 351.5625 Z M 526.292969 371.597656 C 524.933594 369.953125 523.480469 368.472656 521.917969 367.09375 L 522.847656 361.488281 Z M 434.089844 517.3125 C 437.847656 519.875 444.613281 522.726562 454.183594 519.949219 C 457.582031 518.964844 461.332031 517.265625 465.429688 514.59375 C 487.542969 500.160156 504.839844 456.949219 509.753906 438.285156 C 511.949219 429.945312 515.867188 417.34375 519.652344 405.160156 C 523.363281 393.203125 526.894531 381.84375 528.140625 376.539062 C 529.347656 378.476562 530.46875 380.636719 531.507812 383.089844 C 531.101562 386.460938 526.988281 399.699219 522.636719 413.710938 C 518.84375 425.914062 514.921875 438.53125 512.71875 446.90625 C 507.847656 465.402344 490.75 508.195312 468.972656 522.410156 C 448.773438 535.59375 437.617188 524.222656 436.289062 522.730469 C 435.457031 521.011719 434.726562 519.195312 434.089844 517.3125 Z M 529.015625 375.335938 L 523.324219 358.625 L 523.34375 358.507812 L 523.167969 358.273438 C 514.28125 346.289062 498.566406 350.226562 498.410156 350.265625 L 498.253906 350.304688 L 498.132812 350.414062 C 494.824219 353.292969 491.042969 356.386719 490.164062 356.820312 C 483.214844 357.265625 477.765625 358.699219 476.636719 359.015625 L 377.507812 333.855469 L 375.527344 324.859375 L 375.5625 324.71875 L 375.390625 324.464844 C 367.644531 313.074219 351.1875 316.804688 351.019531 316.839844 L 350.890625 316.875 L 350.777344 316.953125 C 346.6875 319.894531 342.046875 323.054688 341.347656 323.257812 C 341.34375 323.257812 341.34375 323.257812 341.34375 323.257812 C 341.34375 323.257812 341.371094 323.25 341.414062 323.253906 L 341.410156 323.265625 C 338.488281 323.464844 335.222656 323.910156 331.546875 324.691406 C 307.835938 329.71875 299.761719 346.707031 294.941406 356.859375 C 294.355469 358.089844 293.804688 359.253906 293.289062 360.257812 C 291.585938 363.558594 286.570312 370.117188 280.21875 378.421875 C 269.175781 392.855469 254.050781 412.625 245.042969 430.132812 C 237.273438 445.234375 235.796875 462.046875 240.953125 474.105469 L 240.753906 474.242188 C 240.765625 474.257812 240.957031 474.535156 241.335938 474.976562 C 241.691406 475.742188 242.074219 476.492188 242.484375 477.214844 C 246.824219 484.851562 253.988281 489.347656 262.65625 489.878906 C 280.558594 490.976562 299.882812 479.160156 321.738281 453.761719 C 326.746094 447.941406 331 443.390625 334.734375 439.84375 C 337.683594 447.253906 350.800781 450.035156 364.652344 446.015625 C 371.644531 443.984375 377.933594 440.441406 381.992188 436.265625 C 391.636719 438.648438 399.527344 440.59375 405.855469 442.148438 L 409.902344 456.097656 C 411.65625 462.144531 419.597656 465.53125 430.222656 464.820312 C 431.136719 472.742188 430.355469 481.550781 429.65625 489.351562 L 429.613281 489.804688 C 428.675781 500.3125 430.039062 521.039062 441.097656 532.101562 C 446.285156 537.289062 452.910156 539.554688 460.785156 538.839844 C 463.28125 538.613281 465.679688 538.15625 467.992188 537.484375 C 491.296875 530.71875 505.304688 502.539062 510.8125 476.707031 C 516.109375 451.859375 530.867188 409.773438 535.261719 397.46875 C 536.117188 395.078125 536.179688 392.519531 535.449219 390.066406 C 533.613281 383.929688 531.5 379.199219 529.015625 375.335938 " fill-opacity="1" fill-rule="nonzero"/></g></g></g></g><g transform="matrix(1, 0, 0, 1, 89, 117)"><g clip-path="url(#b938ab8c10)"><g fill="#9eded3" fill-opacity="1"><g transform="translate(73.705885, 240.79496)"><g><path d="M -16.984375 -75.4375 C -16.816406 -75.664062 -16.472656 -75.910156 -15.953125 -76.171875 C -15.441406 -76.429688 -14.753906 -76.257812 -13.890625 -75.65625 L -9.453125 -72.578125 C -8.546875 -71.953125 -8.128906 -71.359375 -8.203125 -70.796875 C -8.285156 -70.234375 -8.410156 -69.835938 -8.578125 -69.609375 L -25.3125 -45.46875 C -25.726562 -44.875 -26.066406 -44.300781 -26.328125 -43.75 C -26.597656 -43.207031 -26.804688 -42.703125 -26.953125 -42.234375 C -27.160156 -41.378906 -27.144531 -40.53125 -26.90625 -39.6875 C -26.53125 -38.757812 -25.898438 -37.875 -25.015625 -37.03125 C -24.035156 -36.007812 -22.695312 -34.910156 -21 -33.734375 L -7.828125 -24.59375 C -6.117188 -23.414062 -4.617188 -22.546875 -3.328125 -21.984375 C -2.203125 -21.429688 -1.160156 -21.160156 -0.203125 -21.171875 C 0.722656 -21.203125 1.53125 -21.476562 2.21875 -22 C 2.957031 -22.5 3.773438 -23.390625 4.671875 -24.671875 L 15.703125 -40.578125 C 16.148438 -41.222656 16.253906 -41.820312 16.015625 -42.375 C 15.910156 -42.613281 15.6875 -42.9375 15.34375 -43.34375 C 15.007812 -43.75 14.410156 -44.253906 13.546875 -44.859375 C 13.546875 -44.859375 13.28125 -45.039062 12.75 -45.40625 C 12.21875 -45.769531 11.550781 -46.226562 10.75 -46.78125 C 9.957031 -47.332031 9.15625 -47.875 8.34375 -48.40625 C 7.53125 -48.9375 6.859375 -49.382812 6.328125 -49.75 C 5.796875 -50.125 5.53125 -50.3125 5.53125 -50.3125 L -4.265625 -36.171875 C -4.421875 -35.953125 -4.742188 -35.703125 -5.234375 -35.421875 C -5.734375 -35.148438 -6.457031 -35.347656 -7.40625 -36.015625 L -11.71875 -39 C -12.625 -39.632812 -13.046875 -40.238281 -12.984375 -40.8125 C -12.921875 -41.382812 -12.8125 -41.78125 -12.65625 -42 L 1.28125 -62.109375 C 1.539062 -62.484375 1.976562 -62.8125 2.59375 -63.09375 C 3.207031 -63.375 4.0625 -63.132812 5.15625 -62.375 L 20.390625 -51.8125 C 24.140625 -49.21875 26.441406 -46.800781 27.296875 -44.5625 C 28.171875 -42.28125 27.867188 -40.078125 26.390625 -37.953125 L 12.921875 -18.53125 C 11.222656 -16.070312 9.425781 -14.15625 7.53125 -12.78125 C 5.695312 -11.46875 3.640625 -10.734375 1.359375 -10.578125 C -0.960938 -10.453125 -3.394531 -10.90625 -5.9375 -11.9375 C -7.25 -12.457031 -8.625 -13.132812 -10.0625 -13.96875 C -11.507812 -14.800781 -13.023438 -15.769531 -14.609375 -16.875 L -25.859375 -24.671875 C -27.410156 -25.742188 -28.828125 -26.804688 -30.109375 -27.859375 C -31.398438 -28.921875 -32.503906 -29.96875 -33.421875 -31 C -34.367188 -32.050781 -35.160156 -33.109375 -35.796875 -34.171875 C -36.441406 -35.234375 -36.929688 -36.296875 -37.265625 -37.359375 C -37.921875 -39.390625 -37.960938 -41.582031 -37.390625 -43.9375 C -36.773438 -46.195312 -35.617188 -48.554688 -33.921875 -51.015625 Z M -16.984375 -75.4375 "/></g></g></g><g fill="#9eded3" fill-opacity="1"><g transform="translate(106.678865, 191.445326)"><g><path d="M -0.28125 -66.0625 L 45.53125 -42.140625 C 46.15625 -41.835938 46.566406 -41.460938 46.765625 -41.015625 C 46.847656 -40.847656 46.890625 -40.597656 46.890625 -40.265625 C 46.898438 -39.941406 46.695312 -39.601562 46.28125 -39.25 L 40.640625 -34.453125 C 39.898438 -33.828125 39.066406 -33.785156 38.140625 -34.328125 L -2.625 -55.8125 C -2.71875 -55.851562 -2.765625 -55.875 -2.765625 -55.875 L -2.984375 -55.703125 C -2.984375 -55.703125 -2.984375 -55.679688 -2.984375 -55.640625 C -2.992188 -55.609375 -2.984375 -55.539062 -2.953125 -55.4375 L 4.8125 -32.640625 L 11.328125 -38.1875 C 12.066406 -38.820312 12.878906 -38.910156 13.765625 -38.453125 L 19.640625 -35.375 C 20.328125 -34.925781 20.6875 -34.359375 20.71875 -33.671875 C 20.863281 -32.941406 20.617188 -32.304688 19.984375 -31.765625 L 8.4375 -21.953125 L 11.84375 -11.875 C 12.195312 -10.90625 12.023438 -10.125 11.328125 -9.53125 L 5.515625 -4.609375 C 5.097656 -4.253906 4.726562 -4.101562 4.40625 -4.15625 C 4.09375 -4.21875 3.859375 -4.300781 3.703125 -4.40625 C 3.316406 -4.632812 2.988281 -5.085938 2.71875 -5.765625 L -13.59375 -54.734375 C -14.476562 -57.191406 -14.800781 -59.128906 -14.5625 -60.546875 C -14.519531 -60.703125 -14.46875 -60.890625 -14.40625 -61.109375 C -14.351562 -61.335938 -14.28125 -61.550781 -14.1875 -61.75 C -13.78125 -63.382812 -12.890625 -64.785156 -11.515625 -65.953125 C -10.078125 -67.171875 -8.40625 -67.832031 -6.5 -67.9375 C -4.601562 -68.039062 -2.859375 -67.585938 -1.265625 -66.578125 C -1.097656 -66.535156 -0.929688 -66.46875 -0.765625 -66.375 C -0.597656 -66.28125 -0.4375 -66.175781 -0.28125 -66.0625 Z M -0.28125 -66.0625 "/></g></g></g><g fill="#9eded3" fill-opacity="1"><g transform="translate(157.095344, 147.147891)"><g><path d="M 34.828125 -77.65625 C 36.929688 -78.582031 38.660156 -78.535156 40.015625 -77.515625 C 41.210938 -76.640625 42.457031 -74.75 43.75 -71.84375 L 62.203125 -30.046875 C 62.628906 -29.085938 62.664062 -28.375 62.3125 -27.90625 C 61.957031 -27.445312 61.632812 -27.15625 61.34375 -27.03125 L 55.90625 -24.625 C 55.65625 -24.507812 55.238281 -24.476562 54.65625 -24.53125 C 54.082031 -24.582031 53.582031 -25.085938 53.15625 -26.046875 L 36.375 -64.046875 C 36.351562 -64.085938 36.335938 -64.117188 36.328125 -64.140625 C 36.316406 -64.160156 36.3125 -64.171875 36.3125 -64.171875 L 36 -64.03125 C 35.914062 -64 35.894531 -63.941406 35.9375 -63.859375 L 36.90625 -32.234375 C 37.050781 -30.742188 37.113281 -29.410156 37.09375 -28.234375 C 37.070312 -27.691406 37.007812 -27.171875 36.90625 -26.671875 C 36.800781 -26.171875 36.695312 -25.695312 36.59375 -25.25 C 36.257812 -24.289062 35.796875 -23.523438 35.203125 -22.953125 C 34.640625 -22.398438 33.851562 -21.898438 32.84375 -21.453125 L 30.25 -20.3125 C 29.3125 -19.894531 28.410156 -19.644531 27.546875 -19.5625 C 27.109375 -19.53125 26.671875 -19.566406 26.234375 -19.671875 C 25.804688 -19.785156 25.359375 -19.921875 24.890625 -20.078125 C 24.054688 -20.515625 23.210938 -21.066406 22.359375 -21.734375 C 21.503906 -22.515625 20.554688 -23.457031 19.515625 -24.5625 L -3.09375 -46.53125 C -3.207031 -46.632812 -3.304688 -46.664062 -3.390625 -46.625 L -3.703125 -46.5 C -3.703125 -46.5 -3.695312 -46.488281 -3.6875 -46.46875 C -3.675781 -46.445312 -3.660156 -46.414062 -3.640625 -46.375 L 13.140625 -8.375 C 13.566406 -7.414062 13.613281 -6.707031 13.28125 -6.25 C 12.957031 -5.800781 12.644531 -5.507812 12.34375 -5.375 L 6.921875 -2.984375 C 6.628906 -2.847656 6.191406 -2.804688 5.609375 -2.859375 C 5.035156 -2.910156 4.535156 -3.414062 4.109375 -4.375 L -14.34375 -46.171875 C -15.632812 -49.078125 -16.203125 -51.269531 -16.046875 -52.75 C -15.890625 -54.4375 -14.734375 -55.753906 -12.578125 -56.703125 L -6.765625 -59.28125 C -5.835938 -59.6875 -5.0625 -59.925781 -4.4375 -60 C -3.632812 -60.09375 -2.910156 -60.035156 -2.265625 -59.828125 C -1.941406 -59.671875 -1.597656 -59.492188 -1.234375 -59.296875 C -0.867188 -59.109375 -0.515625 -58.859375 -0.171875 -58.546875 C 0.160156 -58.242188 0.523438 -57.890625 0.921875 -57.484375 C 1.328125 -57.085938 1.742188 -56.632812 2.171875 -56.125 L 25.640625 -33.09375 C 25.734375 -32.988281 25.804688 -32.929688 25.859375 -32.921875 C 25.921875 -32.921875 25.953125 -32.921875 25.953125 -32.921875 L 26.578125 -33.203125 C 26.660156 -33.242188 26.6875 -33.351562 26.65625 -33.53125 L 25.5 -66.4375 C 25.445312 -67.113281 25.398438 -67.726562 25.359375 -68.28125 C 25.316406 -68.84375 25.296875 -69.347656 25.296875 -69.796875 C 25.335938 -70.273438 25.398438 -70.707031 25.484375 -71.09375 C 25.566406 -71.488281 25.65625 -71.859375 25.75 -72.203125 C 26.050781 -72.878906 26.476562 -73.445312 27.03125 -73.90625 C 27.507812 -74.320312 28.210938 -74.734375 29.140625 -75.140625 Z M 34.828125 -77.65625 "/></g></g></g><g fill="#9eded3" fill-opacity="1"><g transform="translate(226.267017, 119.109966)"><g><path d="M 1.203125 -58.59375 C 1.472656 -58.65625 1.882812 -58.601562 2.4375 -58.4375 C 2.988281 -58.269531 3.378906 -57.675781 3.609375 -56.65625 L 14.875 -5.6875 C 15.09375 -4.664062 14.988281 -3.960938 14.5625 -3.578125 C 14.132812 -3.203125 13.785156 -2.984375 13.515625 -2.921875 L 7.3125 -1.546875 C 7.03125 -1.484375 6.613281 -1.53125 6.0625 -1.6875 C 5.507812 -1.851562 5.125 -2.445312 4.90625 -3.46875 L -6.359375 -54.4375 C -6.585938 -55.457031 -6.488281 -56.160156 -6.0625 -56.546875 C -5.632812 -56.929688 -5.28125 -57.15625 -5 -57.21875 Z M 1.203125 -58.59375 "/></g></g></g><g fill="#9eded3" fill-opacity="1"><g transform="translate(247.402136, 112.384608)"><g><path d="M 51.921875 -59.265625 C 52.203125 -59.273438 52.597656 -59.164062 53.109375 -58.9375 C 53.628906 -58.707031 53.914062 -58.039062 53.96875 -56.9375 L 55.953125 -11.28125 C 56.097656 -7.925781 55.71875 -5.609375 54.8125 -4.328125 C 53.894531 -2.953125 52.425781 -2.222656 50.40625 -2.140625 L 45.359375 -1.921875 C 44.429688 -1.878906 43.648438 -1.910156 43.015625 -2.015625 C 42.679688 -2.097656 42.347656 -2.1875 42.015625 -2.28125 C 41.691406 -2.382812 41.390625 -2.519531 41.109375 -2.6875 C 40.546875 -2.976562 40.019531 -3.46875 39.53125 -4.15625 C 39.289062 -4.46875 39.019531 -4.820312 38.71875 -5.21875 C 38.425781 -5.613281 38.128906 -6.082031 37.828125 -6.625 L 14.25 -44.46875 C 14.207031 -44.5625 14.160156 -44.613281 14.109375 -44.625 C 14.054688 -44.644531 14.03125 -44.65625 14.03125 -44.65625 L 13.6875 -44.65625 C 13.6875 -44.65625 13.6875 -44.644531 13.6875 -44.625 C 13.695312 -44.601562 13.703125 -44.570312 13.703125 -44.53125 L 15.5 -3.03125 C 15.550781 -1.976562 15.335938 -1.300781 14.859375 -1 C 14.390625 -0.695312 13.992188 -0.539062 13.671875 -0.53125 L 7.53125 -0.265625 C 7.207031 -0.253906 6.785156 -0.375 6.265625 -0.625 C 5.753906 -0.875 5.472656 -1.523438 5.421875 -2.578125 L 3.4375 -48.21875 C 3.289062 -51.582031 3.675781 -53.929688 4.59375 -55.265625 C 5.53125 -56.597656 6.988281 -57.304688 8.96875 -57.390625 L 14.15625 -57.609375 C 14.613281 -57.628906 15.050781 -57.640625 15.46875 -57.640625 C 15.894531 -57.640625 16.269531 -57.625 16.59375 -57.59375 C 17.332031 -57.476562 17.988281 -57.234375 18.5625 -56.859375 C 19.03125 -56.546875 19.53125 -56.035156 20.0625 -55.328125 C 20.320312 -55.015625 20.582031 -54.65625 20.84375 -54.25 C 21.113281 -53.84375 21.398438 -53.394531 21.703125 -52.90625 L 45.203125 -15.046875 C 45.253906 -14.910156 45.328125 -14.84375 45.421875 -14.84375 L 45.765625 -14.859375 C 45.765625 -14.898438 45.765625 -14.921875 45.765625 -14.921875 C 45.765625 -14.921875 45.765625 -14.945312 45.765625 -15 L 43.953125 -56.5 C 43.898438 -57.601562 44.109375 -58.289062 44.578125 -58.5625 C 45.054688 -58.832031 45.457031 -58.976562 45.78125 -59 Z M 51.921875 -59.265625 "/></g></g></g><g fill="#9eded3" fill-opacity="1"><g transform="translate(308.870451, 109.362504)"><g><path d="M 62.796875 -45.125 C 63.066406 -45.070312 63.421875 -44.851562 63.859375 -44.46875 C 64.296875 -44.09375 64.410156 -43.390625 64.203125 -42.359375 L 63.109375 -37.078125 C 62.878906 -35.992188 62.488281 -35.378906 61.9375 -35.234375 C 61.394531 -35.085938 60.988281 -35.039062 60.71875 -35.09375 L 31.953125 -41.0625 C 31.242188 -41.21875 30.585938 -41.3125 29.984375 -41.34375 C 29.378906 -41.375 28.832031 -41.367188 28.34375 -41.328125 C 27.476562 -41.179688 26.703125 -40.828125 26.015625 -40.265625 C 25.304688 -39.566406 24.734375 -38.644531 24.296875 -37.5 C 23.742188 -36.207031 23.257812 -34.546875 22.84375 -32.515625 L 19.578125 -16.828125 C 19.160156 -14.796875 18.945312 -13.070312 18.9375 -11.65625 C 18.875 -10.40625 19.03125 -9.34375 19.40625 -8.46875 C 19.800781 -7.625 20.375 -6.988281 21.125 -6.5625 C 21.863281 -6.070312 23 -5.664062 24.53125 -5.34375 L 43.484375 -1.40625 C 44.253906 -1.25 44.847656 -1.382812 45.265625 -1.8125 C 45.441406 -2.007812 45.648438 -2.34375 45.890625 -2.8125 C 46.128906 -3.289062 46.359375 -4.046875 46.578125 -5.078125 C 46.578125 -5.078125 46.640625 -5.390625 46.765625 -6.015625 C 46.898438 -6.648438 47.066406 -7.441406 47.265625 -8.390625 C 47.460938 -9.335938 47.644531 -10.285156 47.8125 -11.234375 C 47.988281 -12.191406 48.140625 -12.988281 48.265625 -13.625 C 48.398438 -14.257812 48.46875 -14.578125 48.46875 -14.578125 L 31.625 -18.078125 C 31.363281 -18.128906 31.007812 -18.328125 30.5625 -18.671875 C 30.113281 -19.023438 30.003906 -19.765625 30.234375 -20.890625 L 31.3125 -26.03125 C 31.53125 -27.113281 31.914062 -27.738281 32.46875 -27.90625 C 33.03125 -28.070312 33.441406 -28.128906 33.703125 -28.078125 L 57.671875 -23.09375 C 58.117188 -23 58.585938 -22.722656 59.078125 -22.265625 C 59.578125 -21.816406 59.691406 -20.941406 59.421875 -19.640625 L 55.640625 -1.5 C 54.710938 2.96875 53.394531 6.035156 51.6875 7.703125 C 49.925781 9.398438 47.78125 9.988281 45.25 9.46875 L 22.109375 4.65625 C 19.179688 4.050781 16.710938 3.140625 14.703125 1.921875 C 12.773438 0.765625 11.296875 -0.832031 10.265625 -2.875 C 9.242188 -4.976562 8.707031 -7.390625 8.65625 -10.109375 C 8.625 -11.546875 8.710938 -13.085938 8.921875 -14.734375 C 9.128906 -16.390625 9.429688 -18.160156 9.828125 -20.046875 L 12.609375 -33.453125 C 12.984375 -35.296875 13.40625 -37.015625 13.875 -38.609375 C 14.34375 -40.210938 14.867188 -41.632812 15.453125 -42.875 C 16.054688 -44.164062 16.722656 -45.3125 17.453125 -46.3125 C 18.191406 -47.3125 18.984375 -48.175781 19.828125 -48.90625 C 21.441406 -50.300781 23.441406 -51.191406 25.828125 -51.578125 C 28.148438 -51.910156 30.773438 -51.773438 33.703125 -51.171875 Z M 62.796875 -45.125 "/></g></g></g></g></g><g transform="matrix(1, 0, 0, 1, 365, 494)"><g clip-path="url(#d29cea83f8)"><g fill="#9eded3" fill-opacity="1"><g transform="translate(25.397733, 172.230032)"><g><path d="M 43.453125 -64.765625 C 43.765625 -64.816406 44.191406 -64.753906 44.734375 -64.578125 C 45.273438 -64.410156 45.628906 -63.804688 45.796875 -62.765625 L 46.671875 -57.4375 C 46.847656 -56.3125 46.707031 -55.578125 46.25 -55.234375 C 45.789062 -54.898438 45.40625 -54.707031 45.09375 -54.65625 L 27.5625 -51.8125 L 34.6875 -8.015625 C 34.851562 -6.972656 34.71875 -6.285156 34.28125 -5.953125 C 33.851562 -5.628906 33.476562 -5.441406 33.15625 -5.390625 L 26.875 -4.375 C 26.601562 -4.320312 26.195312 -4.378906 25.65625 -4.546875 C 25.113281 -4.722656 24.757812 -5.332031 24.59375 -6.375 L 17.46875 -50.171875 L -0.0625 -47.3125 C -0.382812 -47.257812 -0.816406 -47.320312 -1.359375 -47.5 C -1.898438 -47.675781 -2.257812 -48.328125 -2.4375 -49.453125 L -3.3125 -54.78125 C -3.476562 -55.820312 -3.332031 -56.507812 -2.875 -56.84375 C -2.414062 -57.175781 -2.023438 -57.367188 -1.703125 -57.421875 Z M 43.453125 -64.765625 "/></g></g></g><g fill="#9eded3" fill-opacity="1"><g transform="translate(90.80202, 161.512842)"><g><path d="M 36.421875 -64.296875 C 38.160156 -63.054688 39.734375 -61.144531 41.140625 -58.5625 C 41.773438 -57.363281 42.394531 -55.984375 43 -54.421875 C 43.613281 -52.867188 44.175781 -51.1875 44.6875 -49.375 L 48.421875 -36.203125 C 48.953125 -34.347656 49.363281 -32.601562 49.65625 -30.96875 C 49.957031 -29.332031 50.15625 -27.828125 50.25 -26.453125 C 50.382812 -23.585938 50.050781 -21.128906 49.25 -19.078125 C 48.363281 -16.960938 46.984375 -15.25 45.109375 -13.9375 C 43.191406 -12.59375 40.789062 -11.507812 37.90625 -10.6875 L 21.6875 -6.09375 C 18.757812 -5.257812 16.175781 -4.925781 13.9375 -5.09375 C 11.644531 -5.226562 9.5625 -5.976562 7.6875 -7.34375 C 5.863281 -8.695312 4.289062 -10.597656 2.96875 -13.046875 C 2.300781 -14.253906 1.675781 -15.632812 1.09375 -17.1875 C 0.507812 -18.75 -0.046875 -20.457031 -0.578125 -22.3125 L -4.3125 -35.484375 C -5.394531 -39.304688 -6.003906 -42.53125 -6.140625 -45.15625 C -6.296875 -47.9375 -5.957031 -50.382812 -5.125 -52.5 C -4.21875 -54.582031 -2.835938 -56.3125 -0.984375 -57.6875 C 0.921875 -59.050781 3.289062 -60.140625 6.125 -60.953125 L 22.34375 -65.546875 C 25.226562 -66.367188 27.84375 -66.695312 30.1875 -66.53125 C 32.5 -66.332031 34.578125 -65.585938 36.421875 -64.296875 Z M 34.46875 -47.6875 C 34.1875 -48.675781 33.90625 -49.570312 33.625 -50.375 C 33.351562 -51.175781 33.050781 -51.894531 32.71875 -52.53125 C 32.195312 -53.71875 31.539062 -54.609375 30.75 -55.203125 C 30.125 -55.703125 29.320312 -56.003906 28.34375 -56.109375 C 27.851562 -56.097656 27.316406 -56.054688 26.734375 -55.984375 C 26.160156 -55.921875 25.519531 -55.789062 24.8125 -55.59375 L 9.25 -51.1875 C 8.539062 -50.976562 7.921875 -50.75 7.390625 -50.5 C 6.867188 -50.257812 6.398438 -50.015625 5.984375 -49.765625 C 5.203125 -49.160156 4.679688 -48.484375 4.421875 -47.734375 C 4.253906 -47.296875 4.148438 -46.800781 4.109375 -46.25 C 4.078125 -45.695312 4.085938 -45.085938 4.140625 -44.421875 C 4.242188 -43.722656 4.375 -42.957031 4.53125 -42.125 C 4.695312 -41.289062 4.921875 -40.378906 5.203125 -39.390625 L 9.59375 -23.90625 C 9.875 -22.925781 10.160156 -22.035156 10.453125 -21.234375 C 10.753906 -20.441406 11.046875 -19.722656 11.328125 -19.078125 C 11.617188 -18.546875 11.925781 -18.046875 12.25 -17.578125 C 12.570312 -17.117188 12.914062 -16.753906 13.28125 -16.484375 C 13.925781 -15.898438 14.726562 -15.601562 15.6875 -15.59375 C 16.570312 -15.507812 17.742188 -15.675781 19.203125 -16.09375 L 34.765625 -20.5 C 36.234375 -20.914062 37.328125 -21.394531 38.046875 -21.9375 C 38.847656 -22.445312 39.367188 -23.117188 39.609375 -23.953125 C 39.953125 -24.765625 40.050781 -25.84375 39.90625 -27.1875 C 39.851562 -27.894531 39.734375 -28.660156 39.546875 -29.484375 C 39.367188 -30.316406 39.140625 -31.222656 38.859375 -32.203125 Z M 34.46875 -47.6875 "/></g></g></g><g fill="#9eded3" fill-opacity="1"><g transform="translate(155.677703, 142.987233)"><g><path d="M 28.734375 -68.078125 C 30.597656 -67.046875 32.375 -65.335938 34.0625 -62.953125 C 34.832031 -61.828125 35.609375 -60.523438 36.390625 -59.046875 C 37.179688 -57.578125 37.9375 -55.972656 38.65625 -54.234375 L 43.890625 -41.59375 C 44.628906 -39.8125 45.238281 -38.117188 45.71875 -36.515625 C 46.207031 -34.921875 46.578125 -33.457031 46.828125 -32.125 C 47.316406 -29.269531 47.28125 -26.78125 46.71875 -24.65625 C 46.082031 -22.457031 44.90625 -20.601562 43.1875 -19.09375 C 41.445312 -17.519531 39.191406 -16.160156 36.421875 -15.015625 L 20.84375 -8.5625 C 18.03125 -7.394531 15.5 -6.769531 13.25 -6.6875 C 10.96875 -6.539062 8.8125 -7.039062 6.78125 -8.1875 C 4.8125 -9.320312 3.03125 -11.03125 1.4375 -13.3125 C 0.625 -14.414062 -0.160156 -15.707031 -0.921875 -17.1875 C -1.679688 -18.675781 -2.429688 -20.3125 -3.171875 -22.09375 L -8.40625 -34.734375 C -9.925781 -38.398438 -10.898438 -41.535156 -11.328125 -44.140625 C -11.816406 -46.878906 -11.765625 -49.347656 -11.171875 -51.546875 C -10.523438 -53.710938 -9.359375 -55.585938 -7.671875 -57.171875 C -5.929688 -58.765625 -3.703125 -60.125 -0.984375 -61.25 L 14.59375 -67.703125 C 17.363281 -68.847656 19.921875 -69.472656 22.265625 -69.578125 C 24.578125 -69.648438 26.734375 -69.148438 28.734375 -68.078125 Z M 28.6875 -51.375 C 28.300781 -52.320312 27.925781 -53.175781 27.5625 -53.9375 C 27.195312 -54.695312 26.8125 -55.375 26.40625 -55.96875 C 25.75 -57.09375 24.992188 -57.898438 24.140625 -58.390625 C 23.460938 -58.816406 22.632812 -59.023438 21.65625 -59.015625 C 21.164062 -58.960938 20.632812 -58.867188 20.0625 -58.734375 C 19.5 -58.597656 18.878906 -58.382812 18.203125 -58.09375 L 3.265625 -51.90625 C 2.578125 -51.625 1.984375 -51.332031 1.484375 -51.03125 C 0.992188 -50.726562 0.5625 -50.425781 0.1875 -50.125 C -0.53125 -49.425781 -0.972656 -48.691406 -1.140625 -47.921875 C -1.253906 -47.472656 -1.296875 -46.972656 -1.265625 -46.421875 C -1.234375 -45.867188 -1.15625 -45.265625 -1.03125 -44.609375 C -0.851562 -43.921875 -0.632812 -43.171875 -0.375 -42.359375 C -0.125 -41.554688 0.191406 -40.679688 0.578125 -39.734375 L 6.75 -24.875 C 7.132812 -23.925781 7.519531 -23.070312 7.90625 -22.3125 C 8.300781 -21.5625 8.679688 -20.882812 9.046875 -20.28125 C 9.398438 -19.78125 9.757812 -19.316406 10.125 -18.890625 C 10.5 -18.472656 10.882812 -18.144531 11.28125 -17.90625 C 11.988281 -17.40625 12.816406 -17.207031 13.765625 -17.3125 C 14.660156 -17.320312 15.8125 -17.617188 17.21875 -18.203125 L 32.15625 -24.390625 C 33.5625 -24.972656 34.585938 -25.578125 35.234375 -26.203125 C 35.984375 -26.804688 36.425781 -27.53125 36.5625 -28.375 C 36.800781 -29.226562 36.773438 -30.316406 36.484375 -31.640625 C 36.347656 -32.335938 36.140625 -33.085938 35.859375 -33.890625 C 35.578125 -34.691406 35.242188 -35.566406 34.859375 -36.515625 Z M 28.6875 -51.375 "/></g></g></g><g fill="#9eded3" fill-opacity="1"><g transform="translate(217.726268, 116.908198)"><g><path d="M 34.90625 -30.78125 C 35.1875 -30.9375 35.609375 -31.007812 36.171875 -31 C 36.734375 -30.988281 37.269531 -30.519531 37.78125 -29.59375 L 40.40625 -24.796875 C 40.90625 -23.867188 41.007812 -23.164062 40.71875 -22.6875 C 40.425781 -22.207031 40.140625 -21.890625 39.859375 -21.734375 L 19.84375 -10.78125 C 17.175781 -9.320312 14.726562 -8.429688 12.5 -8.109375 C 10.25 -7.722656 8.054688 -7.988281 5.921875 -8.90625 C 3.941406 -9.726562 1.988281 -11.238281 0.0625 -13.4375 C -1.851562 -15.582031 -3.71875 -18.3125 -5.53125 -21.625 L -21.328125 -50.484375 C -21.859375 -51.453125 -21.960938 -52.171875 -21.640625 -52.640625 C -21.316406 -53.109375 -21.015625 -53.414062 -20.734375 -53.5625 L -15.15625 -56.625 C -14.914062 -56.757812 -14.507812 -56.832031 -13.9375 -56.84375 C -13.375 -56.863281 -12.828125 -56.390625 -12.296875 -55.421875 L 4.0625 -25.53125 C 4.550781 -24.644531 5.023438 -23.832031 5.484375 -23.09375 C 5.941406 -22.351562 6.398438 -21.707031 6.859375 -21.15625 C 7.617188 -20.164062 8.445312 -19.46875 9.34375 -19.0625 C 10.09375 -18.632812 10.921875 -18.507812 11.828125 -18.6875 C 12.785156 -18.851562 13.910156 -19.289062 15.203125 -20 Z M 34.90625 -30.78125 "/></g></g></g><g fill="#9eded3" fill-opacity="1"><g transform="translate(268.670088, 88.989225)"><g><path d="M 12.765625 -50.078125 C 15.722656 -52.109375 18.691406 -52.617188 21.671875 -51.609375 C 24.566406 -50.578125 27.296875 -48.203125 29.859375 -44.484375 L 33.3125 -39.46875 C 35.550781 -36.207031 36.671875 -33.039062 36.671875 -29.96875 C 36.648438 -26.820312 35.066406 -24.160156 31.921875 -21.984375 L 6.265625 -4.3125 C 6.003906 -4.132812 5.585938 -4.003906 5.015625 -3.921875 C 4.453125 -3.835938 3.875 -4.234375 3.28125 -5.109375 L 0.140625 -9.65625 C -0.460938 -10.53125 -0.625 -11.21875 -0.34375 -11.71875 C -0.0703125 -12.21875 0.191406 -12.554688 0.453125 -12.734375 L 24.75 -29.46875 C 25.25 -29.8125 25.539062 -30.140625 25.625 -30.453125 C 25.71875 -30.765625 25.773438 -31.035156 25.796875 -31.265625 C 25.742188 -32.066406 25.363281 -32.984375 24.65625 -34.015625 L 21.28125 -38.890625 C 20.3125 -40.304688 19.476562 -41.023438 18.78125 -41.046875 C 18.09375 -41.078125 17.546875 -40.953125 17.140625 -40.671875 L 0.0625 -28.90625 C -1.113281 -28.101562 -2.421875 -27.425781 -3.859375 -26.875 C -5.304688 -26.320312 -6.875 -26.332031 -8.5625 -26.90625 C -11.46875 -27.988281 -14.289062 -30.519531 -17.03125 -34.5 L -20.015625 -38.828125 C -22.316406 -42.160156 -23.4375 -45.359375 -23.375 -48.421875 C -23.332031 -51.546875 -21.753906 -54.175781 -18.640625 -56.3125 L 5.875 -73.21875 C 6.101562 -73.363281 6.5 -73.472656 7.0625 -73.546875 C 7.625 -73.628906 8.207031 -73.234375 8.8125 -72.359375 L 11.953125 -67.8125 C 12.546875 -66.945312 12.707031 -66.257812 12.4375 -65.75 C 12.164062 -65.25 11.914062 -64.925781 11.6875 -64.78125 L -11.46875 -48.828125 C -11.96875 -48.484375 -12.265625 -48.160156 -12.359375 -47.859375 C -12.460938 -47.566406 -12.507812 -47.289062 -12.5 -47.03125 C -12.394531 -46.21875 -12 -45.316406 -11.3125 -44.328125 L -8.40625 -40.109375 C -7.445312 -38.710938 -6.628906 -37.992188 -5.953125 -37.953125 C -5.273438 -37.910156 -4.726562 -38.03125 -4.3125 -38.3125 Z M 12.765625 -50.078125 "/></g></g></g></g></g></svg>